<svg width="21" height="21" viewBox="0 0 21 21" fill="none" xmlns="http://www.w3.org/2000/svg">
<path fill-rule="evenodd" clip-rule="evenodd" d="M6.51505 2.04275C6.71242 2.07649 6.97061 2.17647 7.15525 2.42874L8.79463 4.66854C9.13112 5.12827 9.20242 5.73059 8.98256 6.25618L8.25269 8.00101C8.23707 8.03837 8.24656 8.06566 8.25449 8.07693C8.71719 8.73414 9.29539 9.43502 10.0232 10.166C10.0346 10.1761 10.0458 10.1866 10.0567 10.1975C10.7978 10.9387 11.5083 11.5259 12.174 11.9946C12.1853 12.0026 12.2126 12.0121 12.2499 11.9964L13.9945 11.2666C14.5201 11.0468 15.1225 11.1181 15.5822 11.4546L17.8218 13.0939C18.074 13.2786 18.174 13.5368 18.2077 13.7342C18.24 13.9227 18.2219 14.1016 18.1974 14.2382C18.1479 14.5135 18.0361 14.8037 17.9259 15.0496C17.7006 15.5518 17.3942 16.0581 17.2456 16.2785L17.1378 16.4385L17.1309 16.4488C16.8301 16.8951 16.3792 17.5641 15.6387 17.8957C14.3583 18.4692 12.7056 18.2459 11.0866 17.5816C9.46068 16.9144 7.73055 15.7492 6.16017 14.1946C6.14715 14.1833 6.13443 14.1714 6.12204 14.159C4.53359 12.5705 3.3444 10.8138 2.66757 9.16422C2.00322 7.54509 1.78001 5.89228 2.35344 4.61183C2.68507 3.87133 3.35404 3.42043 3.80037 3.1196C3.80379 3.11729 3.8072 3.11499 3.8106 3.11271L3.97056 3.00488C4.19103 2.85626 4.69733 2.54991 5.1996 2.32461C5.44542 2.21435 5.73566 2.10257 6.01096 2.05312C6.14759 2.02857 6.32655 2.01053 6.51505 2.04275ZM7.13365 13.0224C7.14475 13.0323 7.15564 13.0426 7.16628 13.0532C8.63523 14.5223 10.2277 15.5874 11.6632 16.1765C13.1292 16.7781 14.2974 16.8324 15.018 16.5096C15.3097 16.379 15.5436 16.0865 15.8784 15.5897L15.9862 15.4297C16.0978 15.2642 16.3579 14.8342 16.5401 14.428C16.593 14.31 16.6327 14.2086 16.6602 14.1258L14.6851 12.6801C14.6549 12.6579 14.6152 12.6532 14.5806 12.6677L12.8361 13.3975C12.3418 13.6043 11.7596 13.5603 11.2996 13.2365C10.5701 12.7228 9.80302 12.0885 9.01225 11.3008C9.00051 11.2905 8.98902 11.2797 8.97779 11.2684C8.17648 10.4671 7.53275 9.68999 7.01264 8.95124C6.68885 8.49133 6.64483 7.90919 6.85158 7.41493L7.58145 5.67009C7.59593 5.63548 7.59124 5.59582 7.56908 5.56555L6.12329 3.59024C6.04058 3.61776 5.9391 3.65745 5.82117 3.71035C5.41494 3.89256 4.98497 4.15266 4.81947 4.26422L4.6595 4.37205C4.16273 4.70692 3.87022 4.94077 3.73954 5.23257C3.4168 5.95325 3.47108 7.12159 4.07264 8.5877C4.65336 10.003 5.69673 11.5708 7.13365 13.0224Z" fill="white"/>
</svg>
