<svg width="16" height="16" viewBox="0 0 16 16" fill="none" xmlns="http://www.w3.org/2000/svg">
<path d="M9.28125 15.1875C9.045 15.1875 8.84531 15.1059 8.68219 14.9428C8.51906 14.7797 8.4375 14.58 8.4375 14.3437V7.59375C8.4375 7.3575 8.51906 7.15781 8.68219 6.99469C8.84531 6.83156 9.045 6.75 9.28125 6.75H14.3438C14.58 6.75 14.7797 6.83156 14.9428 6.99469C15.1059 7.15781 15.1875 7.3575 15.1875 7.59375V14.3437C15.1875 14.58 15.1059 14.7797 14.9428 14.9428C14.7797 15.1059 14.58 15.1875 14.3438 15.1875H9.28125ZM0.84375 8.4375C0.6075 8.4375 0.407813 8.35594 0.244688 8.19281C0.0815625 8.02969 0 7.83 0 7.59375V0.843749C0 0.607499 0.0815625 0.407812 0.244688 0.244687C0.407813 0.081562 0.6075 -9.53674e-07 0.84375 -9.53674e-07H5.90625C6.1425 -9.53674e-07 6.34219 0.081562 6.50531 0.244687C6.66844 0.407812 6.75 0.607499 6.75 0.843749V7.59375C6.75 7.83 6.66844 8.02969 6.50531 8.19281C6.34219 8.35594 6.1425 8.4375 5.90625 8.4375H0.84375ZM5.0625 6.75V1.6875H1.6875V6.75H5.0625ZM0.84375 15.1875C0.6075 15.1875 0.407813 15.1059 0.244688 14.9428C0.0815625 14.7797 0 14.58 0 14.3437V10.9688C0 10.7325 0.0815625 10.5328 0.244688 10.3697C0.407813 10.2066 0.6075 10.125 0.84375 10.125H5.90625C6.1425 10.125 6.34219 10.2066 6.50531 10.3697C6.66844 10.5328 6.75 10.7325 6.75 10.9688V14.3437C6.75 14.58 6.66844 14.7797 6.50531 14.9428C6.34219 15.1059 6.1425 15.1875 5.90625 15.1875H0.84375ZM1.6875 13.5H5.0625V11.8125H1.6875V13.5ZM10.125 13.5H13.5V8.4375H10.125V13.5ZM8.4375 0.843749C8.4375 0.607499 8.51906 0.407812 8.68219 0.244687C8.84531 0.081562 9.045 -9.53674e-07 9.28125 -9.53674e-07H14.3438C14.58 -9.53674e-07 14.7797 0.081562 14.9428 0.244687C15.1059 0.407812 15.1875 0.607499 15.1875 0.843749V4.21875C15.1875 4.455 15.1059 4.65469 14.9428 4.81781C14.7797 4.98094 14.58 5.0625 14.3438 5.0625H9.28125C9.045 5.0625 8.84531 4.98094 8.68219 4.81781C8.51906 4.65469 8.4375 4.455 8.4375 4.21875V0.843749ZM10.125 1.6875V3.375H13.5V1.6875H10.125Z" fill="white"/>
</svg>
