<svg width="24" height="24" viewBox="0 0 24 24" fill="none" xmlns="http://www.w3.org/2000/svg">
  <path d="M3 7.5C3 6.67157 3.67157 6 4.5 6H14.25C14.6642 6 15 6.33579 15 6.75V15.75C15 16.1642 14.6642 16.5 14.25 16.5H4.5C3.67157 16.5 3 15.8284 3 15V7.5Z" stroke="#ffffff" stroke-width="1.6"/>
  <path d="M15 9H18.75C19.1478 9 19.5294 9.15804 19.8107 9.43934L21 10.6287V15.75C21 16.1642 20.6642 16.5 20.25 16.5H18" stroke="#ffffff" stroke-width="1.6" stroke-linecap="round" stroke-linejoin="round"/>
  <circle cx="7.5" cy="18" r="1.5" stroke="#ffffff" stroke-width="1.6"/>
  <circle cx="18" cy="18" r="1.5" stroke="#ffffff" stroke-width="1.6"/>
  <path d="M8 12H12" stroke="#ffffff" stroke-width="1.6" stroke-linecap="round"/>
  <path d="M16.5 13.5H20.5" stroke="#ffffff" stroke-width="1.6" stroke-linecap="round"/>
</svg>
