<svg width="18" height="18" viewBox="0 0 18 18" fill="none" xmlns="http://www.w3.org/2000/svg">
<g clip-path="url(#clip0_7135_8763)">
<path d="M13.5 11.5713H4.5V14.7856H13.5V11.5713Z" stroke="white" stroke-linecap="round" stroke-linejoin="round"/>
<path d="M16.0714 16.0714C16.0714 16.4124 15.9359 16.7395 15.6948 16.9805C15.4538 17.2216 15.1267 17.3571 14.7857 17.3571H3.21427C2.87328 17.3571 2.54625 17.2216 2.30513 16.9805C2.06402 16.7395 1.92856 16.4124 1.92856 16.0714V1.92854C1.92856 1.58754 2.06402 1.26052 2.30513 1.0194C2.54625 0.778281 2.87328 0.642822 3.21427 0.642822H11.5714L16.0714 5.14282V16.0714Z" stroke="white" stroke-linecap="round" stroke-linejoin="round"/>
<path d="M10.9286 3.21436H4.5V6.42864H10.9286V3.21436Z" stroke="white" stroke-linecap="round" stroke-linejoin="round"/>
</g>
<defs>
<clipPath id="clip0_7135_8763">
<rect width="18" height="18" fill="white"/>
</clipPath>
</defs>
</svg>
