<svg width="21" height="21" viewBox="0 0 21 21" fill="none" xmlns="http://www.w3.org/2000/svg">
<path d="M14.3438 17.7188L12.0234 15.1875L13.0022 14.2087L14.3438 15.5503L17.3728 12.5212L18.3516 13.7109L14.3438 17.7188ZM10.8 17.7188H4.21875C3.28219 17.7188 2.53125 16.9678 2.53125 16.0312V4.21875C2.53125 3.28219 3.28219 2.53125 4.21875 2.53125H16.0312C16.9678 2.53125 17.7188 3.28219 17.7188 4.21875V10.8C17.2041 10.5047 16.6388 10.2937 16.0312 10.1925V4.21875H4.21875V16.0312H10.1925C10.2937 16.6388 10.5047 17.2041 10.8 17.7188ZM10.125 14.3438H5.90625V12.6562H10.125V14.3438ZM12.3863 10.9688H5.90625V9.28125H14.3438V10.1925C13.6266 10.3106 12.9684 10.5806 12.3863 10.9688ZM14.3438 7.59375H5.90625V5.90625H14.3438" fill="white"/>
</svg>
