<svg width="32" height="31" viewBox="0 0 32 31" fill="none" xmlns="http://www.w3.org/2000/svg">
<path d="M7.04282 22.2683H24.9571V13.2783C24.9571 11.6422 24.5476 10.118 23.7287 8.70582C22.9439 7.32804 21.8775 6.23443 20.5297 5.42498C19.1307 4.61554 17.6208 4.21082 16 4.21082C14.3791 4.21082 12.8692 4.61554 11.4702 5.42498C10.1224 6.23443 9.05605 7.32804 8.27123 8.70582C7.45229 10.118 7.04282 11.6422 7.04282 13.2783V22.2683ZM16 1.60165C18.0814 1.60165 20.0179 2.13554 21.8093 3.20332C23.5495 4.23665 24.9315 5.63165 25.9552 7.38832C26.9959 9.19665 27.5163 11.16 27.5163 13.2783V24.8516H4.48364V13.2783C4.48364 11.16 5.00401 9.19665 6.04474 7.38832C7.06842 5.63165 8.45037 4.23665 10.1906 3.20332C11.982 2.15276 13.9185 1.62748 16 1.62748V1.60165ZM12.801 26.1433H19.1989C19.1989 26.7289 19.0539 27.2714 18.7639 27.7708C18.4738 28.2703 18.0857 28.6664 17.5994 28.9591C17.1132 29.2519 16.58 29.3983 16 29.3983C15.4199 29.3983 14.8867 29.2519 14.4005 28.9591C13.9142 28.6664 13.5261 28.2703 13.236 27.7708C12.946 27.2714 12.801 26.7375 12.801 26.1691V26.1433Z" fill="#6B7280"/>
</svg>
