<svg width="20" height="20" viewBox="0 0 20 20" fill="none" xmlns="http://www.w3.org/2000/svg">
<path d="M11.6667 15.4173C11.6667 15.4173 12.5001 15.4173 13.3334 17.084C13.3334 17.084 15.9805 12.9173 18.3334 12.084" stroke="#1D51A4" stroke-width="1.5" stroke-linecap="round" stroke-linejoin="round"/>
<path d="M4.5835 9.58398H4.57601" stroke="#1D51A4" stroke-width="2" stroke-linecap="round" stroke-linejoin="round"/>
<path d="M9.16675 16.2513H8.75008C5.61793 16.2513 4.05186 16.2513 3.00629 15.4256C2.83906 15.2935 2.68441 15.1479 2.54408 14.9906C1.66675 14.0065 1.66675 12.5325 1.66675 9.58464C1.66675 6.63673 1.66675 5.16278 2.54408 4.17872C2.68441 4.02132 2.83906 3.87576 3.00629 3.74369C4.05186 2.91797 5.61793 2.91797 8.75008 2.91797H11.2501C14.3822 2.91797 15.9483 2.91797 16.9939 3.74369C17.1611 3.87576 17.3158 4.02132 17.4561 4.17872C18.2465 5.06533 18.3248 6.34962 18.3326 8.7513V9.16797" stroke="#1D51A4" stroke-width="1.5" stroke-linecap="round" stroke-linejoin="round"/>
<path d="M12.0834 9.58333C12.0834 10.7339 11.1507 11.6667 10.0001 11.6667C8.84949 11.6667 7.91675 10.7339 7.91675 9.58333C7.91675 8.43274 8.84949 7.5 10.0001 7.5C11.1507 7.5 12.0834 8.43274 12.0834 9.58333Z" stroke="#1D51A4" stroke-width="1.5"/>
</svg>
