<svg width="17" height="17" viewBox="0 0 17 17" fill="none" xmlns="http://www.w3.org/2000/svg">
<path d="M6.05098 4.16431H1.73355C1.40639 4.16431 1.09264 4.29427 0.861299 4.5256C0.629962 4.75694 0.5 5.07071 0.5 5.39786V15.2663C0.5 15.5935 0.629962 15.9072 0.861299 16.1386C1.09264 16.3699 1.40639 16.4999 1.73355 16.4999H12.8355C13.5168 16.4999 14.069 15.9475 14.069 15.2663V10.3321" stroke="#8B5CF6" stroke-linecap="round" stroke-linejoin="round"/>
<path d="M0.5 7.24829H8.51809" stroke="#8B5CF6" stroke-linecap="round" stroke-linejoin="round"/>
<path d="M3.58386 13.4163L5.43419 11.5659L3.58386 9.71558" stroke="#8B5CF6" stroke-linecap="round" stroke-linejoin="round"/>
<path d="M7.28473 13.4163H9.13506" stroke="#8B5CF6" stroke-linecap="round" stroke-linejoin="round"/>
<path d="M8.98202 4.73596C8.54913 4.66065 8.54913 4.03921 8.98202 3.9639C10.5503 3.69107 11.7976 2.49653 12.1381 0.941515L12.1641 0.822317C12.2578 0.39448 12.867 0.391818 12.9644 0.81882L12.9961 0.95773C13.349 2.50541 14.5968 3.68986 16.1607 3.96193C16.5957 4.03763 16.5957 4.66223 16.1607 4.73792C14.5968 5.01 13.349 6.19445 12.9961 7.74212L12.9644 7.88103C12.867 8.30804 12.2578 8.30538 12.1641 7.87754L12.1381 7.75834C11.7976 6.20332 10.5503 5.0088 8.98202 4.73596Z" stroke="#8B5CF6" stroke-linecap="round" stroke-linejoin="round"/>
</svg>
