<svg width="17" height="17" viewBox="0 0 17 17" fill="none" xmlns="http://www.w3.org/2000/svg">
<path d="M14.0385 4.19238H2.96154C1.60207 4.19238 0.5 5.29445 0.5 6.65392V13.4232C0.5 14.7827 1.60207 15.8847 2.96154 15.8847H14.0385C15.398 15.8847 16.5 14.7827 16.5 13.4232V6.65392C16.5 5.29445 15.398 4.19238 14.0385 4.19238Z" stroke="#EF4444" stroke-linecap="round" stroke-linejoin="round"/>
<path d="M5.4231 4.19231V3.57692C5.4231 2.76087 5.74727 1.97824 6.3243 1.40121C6.90134 0.824172 7.68397 0.5 8.50002 0.5C9.31607 0.5 10.0987 0.824172 10.6757 1.40121C11.2528 1.97824 11.5769 2.76087 11.5769 3.57692V4.19231" stroke="#EF4444" stroke-linecap="round" stroke-linejoin="round"/>
<path d="M6.65387 8.49997C6.65387 8.13483 6.76214 7.7779 6.96501 7.4743C7.16786 7.1707 7.4562 6.93407 7.79353 6.79434C8.13087 6.65461 8.50207 6.61805 8.8602 6.68928C9.21831 6.76052 9.54726 6.93635 9.80545 7.19454C10.0636 7.45273 10.2395 7.78168 10.3107 8.13981C10.3819 8.49792 10.3454 8.86912 10.2056 9.20646C10.0659 9.54381 9.82929 9.83213 9.5257 10.035C9.22209 10.2378 8.86516 10.3461 8.50002 10.3461V10.9615" stroke="#EF4444" stroke-linecap="round" stroke-linejoin="round"/>
<path d="M8.50239 13.423C8.33246 13.423 8.1947 13.2853 8.1947 13.1153C8.1947 12.9453 8.33246 12.8076 8.50239 12.8076" stroke="#EF4444" stroke-linecap="round" stroke-linejoin="round"/>
<path d="M8.50226 13.423C8.67219 13.423 8.80995 13.2853 8.80995 13.1153C8.80995 12.9453 8.67219 12.8076 8.50226 12.8076" stroke="#EF4444" stroke-linecap="round" stroke-linejoin="round"/>
</svg>
