<svg width="18" height="18" viewBox="0 0 18 18" fill="none" xmlns="http://www.w3.org/2000/svg">
<path d="M3.34349 6.08959C2.6079 6.24826 1.94939 6.65536 1.47866 7.24245C1.00793 7.82953 0.753706 8.5608 0.758724 9.31329L0.751465 9.95947C0.754738 10.2492 0.871296 10.5262 1.0762 10.7311C1.2811 10.936 1.55805 11.0525 1.84782 11.0558L4.60683 11.0413C4.89489 11.0388 5.17046 10.9232 5.37416 10.7196C5.57787 10.5158 5.69341 10.2403 5.69592 9.95221C5.69919 9.66246 5.81575 9.38549 6.02064 9.1806C6.22554 8.9757 6.50251 8.85913 6.79226 8.85587H11.1486C11.2929 8.85481 11.4359 8.88244 11.5694 8.93716C11.7029 8.99188 11.8242 9.0726 11.9262 9.17462C12.0282 9.27664 12.1089 9.39793 12.1636 9.53141C12.2184 9.6649 12.246 9.80794 12.245 9.95221C12.2475 10.2403 12.363 10.5158 12.5667 10.7196C12.7704 10.9232 13.046 11.0388 13.334 11.0413H16.093C16.3828 11.038 16.6598 10.9215 16.8647 10.7166C17.0695 10.5117 17.1861 10.2347 17.1894 9.94495L17.1822 9.29876C17.1872 8.54628 16.933 7.81502 16.4622 7.22792C15.9915 6.64084 15.3329 6.23373 14.5974 6.07506C10.8794 5.36303 7.05961 5.36796 3.34349 6.08959Z" stroke="#22A447" stroke-linecap="round" stroke-linejoin="round"/>
</svg>
