<svg width="11" height="9" viewBox="0 0 11 9" fill="none" xmlns="http://www.w3.org/2000/svg">
<path d="M6 6.97V8H8.5V9H2.5V8H5V6.97C4.34667 6.89 3.75333 6.66333 3.22 6.29C2.68667 5.91667 2.27 5.44667 1.97 4.88C1.65667 4.29333 1.5 3.66667 1.5 3V0H9.5V3C9.5 3.66667 9.34333 4.29333 9.03 4.88C8.73 5.44667 8.31333 5.91667 7.78 6.29C7.24667 6.66333 6.65333 6.89 6 6.97ZM2.5 1V3C2.5 3.54 2.63667 4.04333 2.91 4.51C3.17667 4.96333 3.53667 5.32333 3.99 5.59C4.45667 5.86333 4.96 6 5.5 6C6.04 6 6.54333 5.86333 7.01 5.59C7.46333 5.32333 7.82333 4.96333 8.09 4.51C8.36333 4.04333 8.5 3.54 8.5 3V1H2.5ZM0 1H1V3H0V1ZM10 1H11V3H10V1Z" fill="#EAB308"/>
</svg>
