<svg width="21" height="20" viewBox="0 0 21 20" fill="none" xmlns="http://www.w3.org/2000/svg">
<path d="M10.8367 12.3V14.0333C10.3034 13.8444 9.7478 13.75 9.17002 13.75C8.27002 13.75 7.43114 13.9778 6.65336 14.4333C5.8978 14.8778 5.2978 15.4778 4.85336 16.2333C4.3978 17.0111 4.17002 17.85 4.17002 18.75H2.50336C2.50336 17.5389 2.80891 16.4167 3.42002 15.3833C4.00891 14.3833 4.80336 13.5889 5.80336 13C6.83669 12.3889 7.95891 12.0833 9.17002 12.0833C9.73669 12.0833 10.2922 12.1556 10.8367 12.3ZM9.17002 11.25C8.25891 11.25 7.42002 11.0222 6.65336 10.5667C5.8978 10.1222 5.2978 9.52222 4.85336 8.76667C4.3978 8 4.17002 7.16111 4.17002 6.25C4.17002 5.33889 4.3978 4.5 4.85336 3.73333C5.2978 2.97778 5.8978 2.37778 6.65336 1.93333C7.42002 1.47778 8.25891 1.25 9.17002 1.25C10.0811 1.25 10.92 1.47778 11.6867 1.93333C12.4422 2.37778 13.0422 2.97778 13.4867 3.73333C13.9422 4.5 14.17 5.33889 14.17 6.25C14.17 7.16111 13.9422 8 13.4867 8.76667C13.0422 9.52222 12.4422 10.1222 11.6867 10.5667C10.92 11.0222 10.0811 11.25 9.17002 11.25ZM9.17002 9.58333C9.77002 9.58333 10.3256 9.43333 10.8367 9.13333C11.3478 8.83333 11.7534 8.42778 12.0534 7.91667C12.3534 7.40555 12.5034 6.85 12.5034 6.25C12.5034 5.65 12.3534 5.09444 12.0534 4.58333C11.7534 4.07222 11.3478 3.66667 10.8367 3.36667C10.3256 3.06667 9.77002 2.91667 9.17002 2.91667C8.57002 2.91667 8.01447 3.06667 7.50336 3.36667C6.99225 3.66667 6.58669 4.07222 6.28669 4.58333C5.98669 5.09444 5.83669 5.65 5.83669 6.25C5.83669 6.85 5.98669 7.40555 6.28669 7.91667C6.58669 8.42778 6.99225 8.83333 7.50336 9.13333C8.01447 9.43333 8.57002 9.58333 9.17002 9.58333ZM14.17 14.5833V12.0833H15.8367V14.5833H18.3367V16.25H15.8367V18.75H14.17V16.25H11.67V14.5833H14.17Z" fill="#1D51A4"/>
</svg>
