<svg width="13" height="12" viewBox="0 0 13 12" fill="none" xmlns="http://www.w3.org/2000/svg">
<path d="M6.25 3.25C6.97667 3.25 7.65 3.43333 8.27 3.8C8.87 4.15333 9.34667 4.63 9.7 5.23C10.0667 5.85 10.25 6.52333 10.25 7.25C10.25 7.97667 10.0667 8.65 9.7 9.27C9.34667 9.87 8.87 10.3467 8.27 10.7C7.65 11.0667 6.97667 11.25 6.25 11.25C5.52333 11.25 4.85 11.0667 4.23 10.7C3.63 10.3467 3.15333 9.87 2.8 9.27C2.43333 8.65 2.25 7.97667 2.25 7.25C2.25 6.52333 2.43333 5.85 2.8 5.23C3.15333 4.63 3.63 4.15333 4.23 3.8C4.85 3.43333 5.52333 3.25 6.25 3.25ZM6.25 4.25C5.71 4.25 5.20667 4.38667 4.74 4.66C4.28667 4.92667 3.92667 5.28667 3.66 5.74C3.38667 6.20667 3.25 6.71167 3.25 7.255C3.25 7.79833 3.38667 8.3 3.66 8.76C3.92667 9.21333 4.28667 9.57333 4.74 9.84C5.20667 10.1133 5.71 10.25 6.25 10.25C6.79 10.25 7.29333 10.1133 7.76 9.84C8.21333 9.57333 8.57333 9.21333 8.84 8.76C9.11333 8.3 9.25 7.79833 9.25 7.255C9.25 6.71167 9.11333 6.20667 8.84 5.74C8.57333 5.28667 8.21333 4.92667 7.76 4.66C7.29333 4.38667 6.79 4.25 6.25 4.25ZM6.25 5L6.91 6.34L8.39 6.55L7.32 7.6L7.57 9.07L6.25 8.38L4.93 9.07L5.18 7.6L4.11 6.55L5.59 6.34L6.25 5ZM9.25 0.75V2.25L8.57 2.82C7.99667 2.52 7.39 2.33667 6.75 2.27V0.75H9.25ZM5.75 0.75V2.27C5.11 2.33667 4.50333 2.52 3.93 2.82L3.25 2.25V0.75H5.75Z" fill="#FB923C"/>
</svg>
