<svg width="16" height="16" viewBox="0 0 16 16" fill="none" xmlns="http://www.w3.org/2000/svg">
<g clip-path="url(#clip0_597_29214)">
<path d="M8.53716 7.88556C8.36764 7.95918 8.18482 7.99715 8.00002 7.99715C7.81521 7.99715 7.63238 7.95918 7.46287 7.88556L0.948583 4.86842C0.842803 4.81507 0.753907 4.7334 0.691797 4.63251C0.629687 4.53162 0.596802 4.41547 0.596802 4.29699C0.596802 4.17851 0.629687 4.06236 0.691797 3.96147C0.753907 3.86059 0.842803 3.77892 0.948583 3.72556L7.46287 0.685565C7.63238 0.611957 7.81521 0.573975 8.00002 0.573975C8.18482 0.573975 8.36764 0.611957 8.53716 0.685565L15.0514 3.70271C15.1572 3.75607 15.2462 3.83774 15.3082 3.93862C15.3704 4.03951 15.4032 4.15566 15.4032 4.27414C15.4032 4.39262 15.3704 4.50876 15.3082 4.60966C15.2462 4.71055 15.1572 4.79222 15.0514 4.84556L8.53716 7.88556Z" stroke="#EF4444" stroke-linecap="round" stroke-linejoin="round"/>
<path d="M15.4286 8.3999L8.45713 11.6114C8.30823 11.6792 8.14649 11.7144 7.98284 11.7144C7.81919 11.7144 7.65745 11.6792 7.50855 11.6114L0.571411 8.3999" stroke="#EF4444" stroke-linecap="round" stroke-linejoin="round"/>
<path d="M15.4286 12.1143L8.45713 15.3257C8.30823 15.3936 8.14649 15.4288 7.98284 15.4288C7.81919 15.4288 7.65745 15.3936 7.50855 15.3257L0.571411 12.1143" stroke="#EF4444" stroke-linecap="round" stroke-linejoin="round"/>
</g>
<defs>
<clipPath id="clip0_597_29214">
<rect width="16" height="16" fill="white"/>
</clipPath>
</defs>
</svg>
