<svg width="19" height="14" viewBox="0 0 19 14" fill="none" xmlns="http://www.w3.org/2000/svg">
<path d="M0.500122 1.10376L3.42716 2.67902L6.03988 2.22666C6.92185 2.07396 7.8257 2.32643 8.50087 2.91409" stroke="#F8964C" stroke-linecap="round" stroke-linejoin="round"/>
<path d="M14.818 9.3706L10.6795 12.3097C9.76985 12.9558 8.55417 12.9674 7.63223 12.3389L0.500122 7.47705" stroke="#F8964C" stroke-linecap="round" stroke-linejoin="round"/>
<path d="M17.6457 7.44593L14.7175 9.44687L10.1742 5.77834L8.50296 6.99466C7.82342 7.48924 6.87413 7.35599 6.35702 6.69343C5.84109 6.0324 5.94063 5.08165 6.58227 4.54178L8.32239 3.07767C9.15642 2.37594 10.2406 2.04478 11.3244 2.16075L14.0365 2.45092L17.6457 0.5" stroke="#F8964C" stroke-linecap="round" stroke-linejoin="round"/>
<path d="M10.1752 5.78798C11.2684 6.76199 12.8188 6.26508 13.3953 5.46997" stroke="#F8964C" stroke-linecap="round" stroke-linejoin="round"/>
</svg>
