<svg width="18" height="18" viewBox="0 0 18 18" fill="none" xmlns="http://www.w3.org/2000/svg">
<g clip-path="url(#clip0_597_29207)">
<path d="M10.2857 8.35718H3.85718" stroke="#70A6E8" stroke-linecap="round" stroke-linejoin="round"/>
<path d="M15.4286 0.642822H3.21431C2.53233 0.642822 1.87827 0.91374 1.39604 1.39598C0.913801 1.87821 0.642883 2.53227 0.642883 3.21425V17.3571L3.85717 15.4285L7.07145 17.3571L10.2857 15.4285L13.5 17.3571V2.57139C13.5 2.05991 13.7032 1.56936 14.0648 1.20769C14.4265 0.84601 14.9171 0.642822 15.4286 0.642822ZM15.4286 0.642822C15.9401 0.642822 16.4307 0.84601 16.7924 1.20769C17.154 1.56936 17.3572 2.05991 17.3572 2.57139V7.07139H13.5" stroke="#70A6E8" stroke-linecap="round" stroke-linejoin="round"/>
</g>
<defs>
<clipPath id="clip0_597_29207">
<rect width="18" height="18" fill="white"/>
</clipPath>
</defs>
</svg>
