<svg width="21" height="20" viewBox="0 0 21 20" fill="none" xmlns="http://www.w3.org/2000/svg">
<path d="M10.42 18.3333C9.28667 18.3333 8.20334 18.1166 7.17 17.6833C6.18111 17.261 5.30056 16.6638 4.52834 15.8916C3.75611 15.1194 3.15889 14.2388 2.73667 13.2499C2.30334 12.2166 2.08667 11.1333 2.08667 9.99992C2.08667 8.86658 2.30334 7.78325 2.73667 6.74992C3.15889 5.76103 3.75611 4.88047 4.52834 4.10825C5.30056 3.33603 6.18111 2.73881 7.17 2.31658C8.20334 1.88325 9.28667 1.66658 10.42 1.66658C11.5533 1.66658 12.6367 1.88325 13.67 2.31658C14.6589 2.73881 15.5394 3.33603 16.3117 4.10825C17.0839 4.88047 17.6811 5.76103 18.1033 6.74992C18.5367 7.78325 18.7533 8.86658 18.7533 9.99992C18.7533 11.1333 18.5367 12.2166 18.1033 13.2499C17.6811 14.2388 17.0839 15.1194 16.3117 15.8916C15.5394 16.6638 14.6589 17.261 13.67 17.6833C12.6367 18.1166 11.5533 18.3333 10.42 18.3333ZM10.42 16.6666C11.6311 16.6666 12.7533 16.361 13.7867 15.7499C14.7867 15.161 15.5811 14.3666 16.17 13.3666C16.7811 12.3333 17.0867 11.211 17.0867 9.99992C17.0867 8.78881 16.7811 7.66658 16.17 6.63325C15.5811 5.63325 14.7867 4.83881 13.7867 4.24992C12.7533 3.63881 11.6311 3.33325 10.42 3.33325C9.20889 3.33325 8.08667 3.63881 7.05334 4.24992C6.05334 4.83881 5.25889 5.63325 4.67 6.63325C4.05889 7.66658 3.75334 8.78881 3.75334 9.99992C3.75334 11.211 4.05889 12.3333 4.67 13.3666C5.25889 14.3666 6.05334 15.161 7.05334 15.7499C8.08667 16.361 9.20889 16.6666 10.42 16.6666ZM7.50334 11.6666H12.0867C12.1978 11.6666 12.295 11.6249 12.3783 11.5416C12.4617 11.4583 12.5033 11.361 12.5033 11.2499C12.5033 11.1388 12.4617 11.0416 12.3783 10.9583C12.295 10.8749 12.1978 10.8333 12.0867 10.8333H8.75334C8.37556 10.8333 8.02834 10.7388 7.71167 10.5499C7.395 10.361 7.14223 10.1083 6.95334 9.79158C6.76445 9.47492 6.67 9.1277 6.67 8.74992C6.67 8.37214 6.76445 8.02492 6.95334 7.70825C7.14223 7.39158 7.395 7.13881 7.71167 6.94992C8.02834 6.76103 8.37556 6.66658 8.75334 6.66658H9.58667V4.99992H11.2533V6.66658H13.3367V8.33325H8.75334C8.64223 8.33325 8.545 8.37492 8.46167 8.45825C8.37834 8.54158 8.33667 8.63881 8.33667 8.74992C8.33667 8.86103 8.37834 8.95825 8.46167 9.04158C8.545 9.12492 8.64223 9.16658 8.75334 9.16658H12.0867C12.4644 9.16658 12.8117 9.26103 13.1283 9.44992C13.445 9.63881 13.6978 9.89158 13.8867 10.2083C14.0756 10.5249 14.17 10.8721 14.17 11.2499C14.17 11.6277 14.0756 11.9749 13.8867 12.2916C13.6978 12.6083 13.445 12.861 13.1283 13.0499C12.8117 13.2388 12.4644 13.3333 12.0867 13.3333H11.2533V14.9999H9.58667V13.3333H7.50334V11.6666Z" fill="#EAB308"/>
</svg>
